<?xml version="1.0" encoding="UTF-8" standalone="no"?>
<svg width="163px" height="163px" viewBox="0 0 163 163" version="1.1" xmlns="http://www.w3.org/2000/svg" xmlns:xlink="http://www.w3.org/1999/xlink" xmlns:sketch="http://www.bohemiancoding.com/sketch/ns">
    <!-- Generator: Sketch 3.0.4 (8054) - http://www.bohemiancoding.com/sketch -->
    <title>Slice 2</title>
    <desc>Created with Sketch.</desc>
    <defs></defs>
    <g id="Page-1" stroke="none" stroke-width="1" fill="none" fill-rule="evenodd" sketch:type="MSPage">
        <g id="Imported-Layers" sketch:type="MSLayerGroup">
            <path d="M162.602,81.611 C162.602,36.851 126.187,0.436 81.427,0.436 C36.666,0.436 0.251,36.851 0.251,81.611 C0.251,84.583 2.66,86.992 5.632,86.992 C8.604,86.992 11.013,84.583 11.013,81.611 C11.013,42.785 42.602,11.197 81.427,11.197 C120.252,11.197 151.84,42.785 151.84,81.611 C151.84,120.439 120.252,152.026 81.427,152.026 C81.424,152.026 81.421,152.027 81.418,152.027 L46.984,152.027 C44.015,152.027 41.607,154.436 41.607,157.405 C41.607,160.375 44.015,162.783 46.984,162.783 L81.378,162.783 C81.396,162.783 81.41,162.788 81.427,162.788 C126.187,162.788 162.602,126.372 162.602,81.611" id="Fill-1" fill="#1A1918" sketch:type="MSShapeGroup"></path>
            <path d="M148.979,81.611 C148.979,44.362 118.676,14.059 81.427,14.059 C44.178,14.059 13.874,44.362 13.874,81.611 C13.874,84.583 16.283,86.992 19.255,86.992 C22.227,86.992 24.636,84.583 24.636,81.611 C24.636,50.298 50.112,24.82 81.427,24.82 C112.742,24.82 138.218,50.298 138.218,81.611 C138.218,112.927 112.742,138.403 81.427,138.403 C81.367,138.403 81.311,138.419 81.252,138.422 L33.143,138.422 C30.174,138.422 27.766,140.829 27.766,143.8 C27.766,146.769 30.174,149.177 33.143,149.177 L81.427,149.177 C81.479,149.177 81.53,149.162 81.582,149.161 C118.76,149.076 148.979,118.809 148.979,81.611" id="Fill-2" fill="#1A1918" sketch:type="MSShapeGroup"></path>
            <path d="M135.088,81.611 C135.088,52.022 111.016,27.95 81.427,27.95 C51.838,27.95 27.767,52.022 27.767,81.611 C27.767,84.583 30.176,86.992 33.147,86.992 C36.118,86.992 38.528,84.583 38.528,81.611 C38.528,57.956 57.773,38.713 81.427,38.713 C105.081,38.713 124.325,57.956 124.325,81.611 C124.325,105.266 105.081,124.511 81.427,124.511 C81.356,124.511 81.291,124.528 81.223,124.531 L19.251,124.531 C16.281,124.531 13.873,126.94 13.873,129.909 C13.873,132.88 16.281,135.287 19.251,135.287 L81.427,135.287 C81.493,135.287 81.555,135.271 81.62,135.268 C111.119,135.162 135.088,111.136 135.088,81.611" id="Fill-3" fill="#1A1918" sketch:type="MSShapeGroup"></path>
            <path d="M121.246,81.611 C121.246,59.654 103.384,41.792 81.427,41.792 C59.47,41.792 41.606,59.654 41.606,81.611 C41.606,84.583 44.017,86.992 46.987,86.992 C49.96,86.992 52.368,84.583 52.368,81.611 C52.368,65.59 65.404,52.554 81.427,52.554 C97.449,52.554 110.484,65.59 110.484,81.611 C110.484,97.634 97.449,110.67 81.427,110.67 C81.33,110.67 81.24,110.693 81.145,110.698 L46.984,110.698 C44.015,110.698 41.606,113.106 41.606,116.076 C41.606,119.047 44.015,121.454 46.984,121.454 L81.428,121.454 C81.529,121.454 81.625,121.43 81.726,121.425 C103.545,121.263 121.246,103.469 121.246,81.611" id="Fill-4" fill="#1A1918" sketch:type="MSShapeGroup"></path>
            <path d="M87.146,81.24 C87.146,78.082 84.586,75.521 81.427,75.521 C78.268,75.521 75.707,78.082 75.707,81.24 C75.707,84.399 78.268,86.961 81.427,86.961 C84.586,86.961 87.146,84.399 87.146,81.24" id="Fill-5" fill="#1A1918" sketch:type="MSShapeGroup"></path>
            <path d="M38.148,157.809 C38.148,160.676 35.824,163 32.957,163 C30.09,163 27.766,160.676 27.766,157.809 C27.766,154.942 30.09,152.618 32.957,152.618 C35.824,152.618 38.148,154.942 38.148,157.809" id="Fill-6" fill="#984150" sketch:type="MSShapeGroup"></path>
            <path d="M38.158,115.977 C38.158,118.844 35.835,121.167 32.968,121.167 C30.101,121.167 27.776,118.844 27.776,115.977 C27.776,113.109 30.101,110.785 32.968,110.785 C35.835,110.785 38.158,113.109 38.158,115.977" id="Fill-7" fill="#DE8449" sketch:type="MSShapeGroup"></path>
            <path d="M24.256,143.683 C24.256,146.55 21.932,148.874 19.064,148.874 C16.197,148.874 13.873,146.55 13.873,143.683 C13.873,140.815 16.197,138.492 19.064,138.492 C21.932,138.492 24.256,140.815 24.256,143.683" id="Fill-8" fill="#6BB962" sketch:type="MSShapeGroup"></path>
            <path d="M10.633,129.801 C10.633,132.668 8.309,134.991 5.441,134.991 C2.575,134.991 0.251,132.668 0.251,129.801 C0.251,126.934 2.575,124.609 5.441,124.609 C8.309,124.609 10.633,126.934 10.633,129.801" id="Fill-9" fill="#208AB1" sketch:type="MSShapeGroup"></path>
        </g>
    </g>
</svg>